# xmcd
#
# Track frame offsets: 
#        182
#        20155
#        36680
#        62537
#        65845
#        109642
#        129185
#        151020
#        170877
#        209972
#
# Disc length: 3232 seconds
#
# Revision: 3
# Processed by: cddbd v1.5.2PL0 Copyright (c) Steve Scherf et al.
# Submitted via: ExactAudioCopy v0.95b3
#
DISCID=970c9e0a
DTITLE=Walter Trout Band - Life In The Jungle
DYEAR=1989
DGENRE=Blues
TTITLE0=Good Enough To Eat
TTITLE1=The Mountain Song
TTITLE2=Life In The Jungle
TTITLE3=Spacefish
TTITLE4=Red House
TTITLE5=She's Out There Somewhere
TTITLE6=Frederica (I Don't Need You)
TTITLE7=In My Mind
TTITLE8=Cold Cold Feeling
TTITLE9=Serve Me Right To Suffer
EXTD=
EXTT0=
EXTT1=
EXTT2=
EXTT3=
EXTT4=
EXTT5=
EXTT6=
EXTT7=
EXTT8=
EXTT9=
PLAYORDER=
